<?xml version="1.0" encoding="UTF-8"?>
<svg xmlns="http://www.w3.org/2000/svg" xmlns:xlink="http://www.w3.org/1999/xlink" width="240.945pt" height="155.906pt" viewBox="0 0 240.945 155.906">
<defs>
<g>
<g id="glyph-0-0">
<path d="M 0.78125 -0.90625 L 1.484375 -1.71875 L -1.28125 -4.09375 L -0.703125 -4.765625 C -0.390625 -5.140625 -0.09375 -5.15625 0.546875 -5.0625 L 3.890625 -4.515625 L 4.71875 -5.46875 L 1.140625 -6.046875 C 0.75 -6.09375 0.421875 -6.078125 0.1875 -5.984375 C 0.671875 -6.9375 0.65625 -8.03125 -0.46875 -9 C -1.734375 -10.09375 -2.921875 -9.921875 -4.09375 -8.546875 L -5.796875 -6.578125 Z M -3.5625 -7.84375 C -2.75 -8.78125 -2 -8.828125 -1.203125 -8.140625 C -0.296875 -7.359375 -0.328125 -6.515625 -1.078125 -5.640625 L -1.921875 -4.65625 L -4.4375 -6.8125 Z M -3.5625 -7.84375 "/>
</g>
<g id="glyph-0-1">
<path d="M 0.78125 -0.90625 L 4.109375 -4.765625 L 3.421875 -5.359375 L 0.796875 -2.3125 L -1.53125 -4.3125 L 0.703125 -6.921875 L 0.015625 -7.515625 L -2.21875 -4.90625 L -4.40625 -6.796875 L -1.78125 -9.84375 L -2.46875 -10.4375 L -5.796875 -6.578125 Z M 0.78125 -0.90625 "/>
</g>
<g id="glyph-0-2">
<path d="M -5.421875 -5.71875 L -4.71875 -6.53125 L 0.5625 -1.96875 L -0.140625 -1.15625 L 0.515625 -0.59375 L 2.625 -3.046875 L 1.96875 -3.609375 L 1.265625 -2.78125 L -4.015625 -7.34375 L -3.3125 -8.171875 L -3.953125 -8.71875 L -6.0625 -6.265625 Z M -5.421875 -5.71875 "/>
</g>
<g id="glyph-0-3">
<path d="M 0.78125 -0.90625 L 1.46875 -1.703125 L -2.953125 -5.515625 C -3.25 -5.765625 -3.671875 -6.109375 -4.078125 -6.375 C -3.5625 -6.1875 -3 -6.0625 -2.546875 -5.984375 L 4.1875 -4.859375 L 4.921875 -5.71875 L -1.65625 -11.390625 L -2.34375 -10.578125 L 2.078125 -6.765625 C 2.359375 -6.515625 2.78125 -6.203125 3.171875 -5.921875 C 2.65625 -6.09375 2.125 -6.203125 1.671875 -6.296875 L -5.046875 -7.453125 L -5.796875 -6.578125 Z M 0.78125 -0.90625 "/>
</g>
<g id="glyph-0-4">
<path d="M 3.03125 -3.296875 C 3.828125 -4.234375 4.3125 -5.078125 4.5 -5.859375 L 1.65625 -8.3125 L 0.9375 -7.484375 L 3.296875 -5.453125 C 3.109375 -4.96875 2.796875 -4.484375 2.359375 -3.96875 C 1.3125 -2.75 -0.1875 -2.578125 -2.125 -4.25 C -3.921875 -5.796875 -4.109375 -7.25 -2.890625 -8.671875 C -2.328125 -9.3125 -1.65625 -9.8125 -1.125 -10.015625 L -1.859375 -10.640625 C -2.40625 -10.46875 -3.09375 -9.9375 -3.671875 -9.265625 C -5.328125 -7.359375 -4.984375 -5.28125 -2.828125 -3.421875 C -0.515625 -1.421875 1.46875 -1.5 3.03125 -3.296875 Z M 3.03125 -3.296875 "/>
</g>
<g id="glyph-0-5">
<path d="M 2.75 -2.96875 C 4.125 -4.5625 4.0625 -5.84375 2.640625 -7.0625 L -1.953125 -11.03125 L -2.65625 -10.21875 L 1.78125 -6.390625 C 2.828125 -5.5 2.921875 -4.609375 2.03125 -3.578125 C 1.140625 -2.546875 0.28125 -2.546875 -0.765625 -3.4375 L -5.203125 -7.265625 L -5.921875 -6.4375 L -1.328125 -2.46875 C 0.09375 -1.25 1.359375 -1.359375 2.75 -2.96875 Z M 2.75 -2.96875 "/>
</g>
<g id="glyph-0-6">
<path d="M 2.125 -2.234375 C 3.46875 -3.796875 3.3125 -5.296875 2.21875 -6.234375 C 1.09375 -7.203125 0.0625 -6.859375 -1.3125 -5.96875 C -2.390625 -5.28125 -2.984375 -5.046875 -3.640625 -5.609375 C -4.28125 -6.171875 -4.375 -6.984375 -3.59375 -7.90625 C -3 -8.578125 -2.40625 -9.015625 -1.78125 -9.25 L -2.515625 -9.875 C -3.078125 -9.6875 -3.671875 -9.265625 -4.3125 -8.53125 C -5.609375 -7.015625 -5.421875 -5.71875 -4.328125 -4.765625 C -3.1875 -3.78125 -2.1875 -4.15625 -0.84375 -5.03125 C 0.21875 -5.71875 0.84375 -5.9375 1.515625 -5.375 C 2.1875 -4.78125 2.234375 -3.8125 1.375 -2.828125 C 0.796875 -2.15625 0 -1.578125 -0.546875 -1.34375 L 0.15625 -0.71875 C 0.75 -0.921875 1.453125 -1.46875 2.125 -2.234375 Z M 2.125 -2.234375 "/>
</g>
<g id="glyph-0-7">
<path d="M 2.09375 -2.4375 L 2.859375 -3.3125 L -1.765625 -11.265625 L -2.515625 -10.390625 L 0.953125 -4.59375 C 1.15625 -4.28125 1.328125 -3.984375 1.5625 -3.6875 C 1.25 -3.890625 0.90625 -4 0.5625 -4.140625 L -5.671875 -6.71875 L -6.4375 -5.84375 Z M 2.09375 -2.4375 "/>
</g>
<g id="glyph-0-8">
<path d="M 2.828125 -3.0625 C 3.546875 -3.890625 3.84375 -4.484375 4.03125 -5.109375 L 3.328125 -5.71875 C 3.125 -5.09375 2.8125 -4.5 2.21875 -3.8125 C 1.21875 -2.65625 -0.25 -2.640625 -2.109375 -4.234375 C -3.765625 -5.671875 -4.265625 -7.0625 -3.15625 -8.34375 C -2.609375 -9 -1.9375 -9.46875 -1.40625 -9.6875 L -2.140625 -10.3125 C -2.703125 -10.140625 -3.359375 -9.625 -3.9375 -8.953125 C -5.484375 -7.15625 -4.828125 -5.140625 -2.8125 -3.40625 C -0.578125 -1.484375 1.40625 -1.40625 2.828125 -3.0625 Z M 2.828125 -3.0625 "/>
</g>
<g id="glyph-1-0">
<path d="M 2.8125 -3 C 3.71875 -4.0625 4.078125 -5.1875 4.046875 -6.328125 L 5.578125 -6.46875 L 6.671875 -7.734375 L 3.890625 -7.453125 C 3.65625 -8.34375 3.125 -9.171875 2.34375 -9.890625 L 3.109375 -10.78125 L 2.390625 -11.421875 L 0.859375 -9.625 L 1.5 -9.0625 C 2.125 -8.53125 2.515625 -7.9375 2.734375 -7.34375 L -0.78125 -6.984375 L -0.734375 -7.140625 C -0.40625 -8.5 -0.515625 -9.734375 -1.390625 -10.5 C -2.265625 -11.25 -3.609375 -11.09375 -4.71875 -9.8125 C -5.84375 -8.515625 -5.859375 -7.171875 -4.765625 -6.234375 C -3.953125 -5.515625 -3.0625 -5.578125 -2.109375 -5.6875 L -2.15625 -5.484375 C -2.515625 -3.984375 -2.3125 -3 -1.375 -2.1875 C -0.25 -1.21875 1.375 -1.328125 2.8125 -3 Z M 2.078125 -3.78125 C 1.203125 -2.75 0.140625 -2.609375 -0.59375 -3.234375 C -1.265625 -3.8125 -1.40625 -4.53125 -1.125 -5.640625 L -1.0625 -5.828125 L 2.96875 -6.203125 C 3.015625 -5.34375 2.734375 -4.53125 2.078125 -3.78125 Z M -3.921875 -7.203125 C -4.578125 -7.765625 -4.46875 -8.515625 -3.9375 -9.140625 C -3.328125 -9.859375 -2.546875 -9.84375 -2.15625 -9.5 C -1.59375 -9.015625 -1.484375 -8.296875 -1.796875 -7.046875 L -1.828125 -6.875 C -2.796875 -6.765625 -3.296875 -6.65625 -3.921875 -7.203125 Z M -3.921875 -7.203125 "/>
</g>
<g id="glyph-1-1">
</g>
<g id="glyph-1-2">
<path d="M 0.890625 -1.046875 L 4.75 -5.5 L 3.96875 -6.171875 L 0.9375 -2.65625 L -1.6875 -4.921875 L 0.890625 -7.9375 L 0.109375 -8.609375 L -2.46875 -5.59375 L -4.9375 -7.71875 L -1.90625 -11.234375 L -2.6875 -11.90625 L -6.546875 -7.453125 Z M 0.890625 -1.046875 "/>
</g>
<g id="glyph-1-3">
<path d="M 0.890625 -1.046875 L 1.6875 -1.96875 L -3.3125 -6.28125 C -3.640625 -6.5625 -4.125 -6.9375 -4.5625 -7.25 C -3.984375 -7.046875 -3.34375 -6.90625 -2.828125 -6.828125 L 4.828125 -5.59375 L 5.6875 -6.59375 L -1.75 -13 L -2.546875 -12.078125 L 2.453125 -7.765625 C 2.765625 -7.5 3.25 -7.109375 3.6875 -6.8125 C 3.09375 -7 2.484375 -7.140625 1.984375 -7.21875 L -5.671875 -8.453125 L -6.546875 -7.453125 Z M 0.890625 -1.046875 "/>
</g>
<g id="glyph-1-4">
<path d="M -6.421875 -6 L -4.578125 -8.15625 L 2.078125 -2.421875 L 2.890625 -3.359375 L -3.765625 -9.09375 L -1.921875 -11.234375 L -2.703125 -11.90625 L -7.203125 -6.671875 Z M -6.421875 -6 "/>
</g>
<g id="glyph-1-5">
<path d="M 0.890625 -1.046875 L 1.71875 -1.984375 L -1.40625 -4.671875 L -0.75 -5.453125 C -0.375 -5.875 -0.0625 -5.90625 0.6875 -5.78125 L 4.484375 -5.203125 L 5.4375 -6.3125 L 1.359375 -6.921875 C 0.9375 -6.984375 0.578125 -6.953125 0.28125 -6.859375 C 0.84375 -7.921875 0.859375 -9.171875 -0.421875 -10.28125 C -1.859375 -11.515625 -3.21875 -11.3125 -4.578125 -9.71875 L -6.546875 -7.453125 Z M -3.953125 -8.9375 C -3.03125 -10.015625 -2.171875 -10.09375 -1.265625 -9.3125 C -0.25 -8.4375 -0.28125 -7.4375 -1.140625 -6.453125 L -2.125 -5.296875 L -4.96875 -7.75 Z M -3.953125 -8.9375 "/>
</g>
<g id="glyph-1-6">
<path d="M 3.171875 -3.4375 C 4.765625 -5.28125 4.671875 -6.75 3.09375 -8.109375 L -2.109375 -12.59375 L -2.921875 -11.65625 L 2.09375 -7.34375 C 3.265625 -6.328125 3.390625 -5.296875 2.375 -4.125 C 1.359375 -2.9375 0.328125 -2.90625 -0.84375 -3.921875 L -5.859375 -8.234375 L -6.65625 -7.3125 L -1.453125 -2.828125 C 0.125 -1.46875 1.578125 -1.578125 3.171875 -3.4375 Z M -6.40625 -9.078125 L -5.5625 -10.0625 L -6.59375 -10.953125 L -7.4375 -9.96875 Z M -4.6875 -11.0625 L -3.84375 -12.046875 L -4.875 -12.9375 L -5.71875 -11.953125 Z M -4.6875 -11.0625 "/>
</g>
<g id="glyph-1-7">
<path d="M 0.890625 -1.046875 L 1.6875 -1.96875 L -3.5 -6.4375 C -3.8125 -6.703125 -4.25 -7.03125 -4.640625 -7.3125 C -4.15625 -7.140625 -3.578125 -6.984375 -3.15625 -6.921875 L 1.53125 -6.03125 L 2.078125 -6.65625 L 0.5 -11.171875 C 0.359375 -11.5625 0.109375 -12.09375 -0.140625 -12.53125 C 0.1875 -12.1875 0.59375 -11.8125 0.90625 -11.546875 L 6.09375 -7.078125 L 6.890625 -8 L -0.546875 -14.40625 L -1.453125 -13.359375 L 0.359375 -8.234375 C 0.484375 -7.859375 0.65625 -7.46875 0.875 -7.109375 C 0.46875 -7.28125 0.09375 -7.40625 -0.28125 -7.484375 L -5.625 -8.515625 L -6.546875 -7.453125 Z M 0.890625 -1.046875 "/>
</g>
<g id="glyph-1-8">
<path d="M 0.890625 -1.046875 L 1.71875 -1.984375 L -1.09375 -4.40625 L 0.015625 -5.703125 C 1.5625 -7.5 1.3125 -8.9375 -0.140625 -10.203125 C -1.59375 -11.453125 -3.125 -11.40625 -4.515625 -9.796875 L -6.546875 -7.453125 Z M -3.875 -9.03125 C -2.9375 -10.125 -1.90625 -10.03125 -0.984375 -9.234375 C 0 -8.375 0.203125 -7.4375 -0.8125 -6.265625 L -1.84375 -5.046875 L -4.96875 -7.75 Z M -3.875 -9.03125 "/>
</g>
<g id="glyph-1-9">
<path d="M 0.890625 -1.046875 L 4.359375 -5.0625 L 3.578125 -5.734375 L 0.9375 -2.65625 L -5.71875 -8.390625 L -6.546875 -7.453125 Z M 0.890625 -1.046875 "/>
</g>
<g id="glyph-1-10">
<path d="M 3.171875 -3.4375 C 4.765625 -5.28125 4.671875 -6.75 3.09375 -8.109375 L -2.109375 -12.59375 L -2.921875 -11.65625 L 2.09375 -7.34375 C 3.265625 -6.328125 3.390625 -5.296875 2.375 -4.125 C 1.359375 -2.9375 0.328125 -2.90625 -0.84375 -3.921875 L -5.859375 -8.234375 L -6.65625 -7.3125 L -1.453125 -2.828125 C 0.125 -1.46875 1.578125 -1.578125 3.171875 -3.4375 Z M 3.171875 -3.4375 "/>
</g>
<g id="glyph-1-11">
<path d="M 3.484375 -3.796875 C 4.421875 -4.890625 4.984375 -5.84375 5.1875 -6.75 L 2 -9.5 L 1.1875 -8.5625 L 3.828125 -6.28125 C 3.625 -5.734375 3.21875 -5.171875 2.71875 -4.59375 C 1.515625 -3.171875 -0.171875 -2.9375 -2.375 -4.828125 C -4.40625 -6.578125 -4.609375 -8.25 -3.203125 -9.875 C -2.546875 -10.640625 -1.78125 -11.203125 -1.171875 -11.4375 L -2 -12.140625 C -2.609375 -11.953125 -3.421875 -11.328125 -4.078125 -10.546875 C -5.984375 -8.34375 -5.625 -5.96875 -3.203125 -3.875 C -0.578125 -1.609375 1.703125 -1.71875 3.484375 -3.796875 Z M 3.484375 -3.796875 "/>
</g>
</g>
<clipPath id="clip-0">
<path clip-rule="nonzero" d="M 0.046875 0 L 175 0 L 175 155.8125 L 0.046875 155.8125 Z M 0.046875 0 "/>
</clipPath>
<clipPath id="clip-1">
<path clip-rule="nonzero" d="M 189 115 L 237 115 L 237 155.8125 L 189 155.8125 Z M 189 115 "/>
</clipPath>
<clipPath id="clip-2">
<path clip-rule="nonzero" d="M 89 0 L 223 0 L 223 155.8125 L 89 155.8125 Z M 89 0 "/>
</clipPath>
</defs>
<g clip-path="url(#clip-0)">
<path fill-rule="nonzero" fill="rgb(13.729858%, 12.159729%, 12.548828%)" fill-opacity="1" d="M 0.046875 0 L 0.046875 155.8125 L 141.058594 155.8125 L 174.453125 0 Z M 0.046875 0 "/>
</g>
<g clip-path="url(#clip-1)">
<path fill-rule="nonzero" fill="rgb(31.001282%, 76.733398%, 72.724915%)" fill-opacity="1" d="M 189.917969 115.894531 L 206.164062 155.8125 L 236.640625 155.8125 L 220.382812 115.871094 Z M 189.917969 115.894531 "/>
</g>
<g clip-path="url(#clip-2)">
<path fill-rule="nonzero" fill="rgb(21.936035%, 61.11145%, 58.425903%)" fill-opacity="1" d="M 142.84375 0 L 159.082031 39.894531 L 156.039062 43.570312 L 138.304688 0 L 135.378906 0 L 154.074219 45.941406 L 150.632812 50.101562 L 130.242188 0 L 127.3125 0 L 148.667969 52.472656 L 145.222656 56.632812 L 122.175781 0 L 119.246094 0 L 143.261719 59 L 139.816406 63.160156 L 114.109375 0 L 111.183594 0 L 137.851562 65.53125 L 89.777344 123.667969 L 102.859375 155.8125 L 169.921875 155.8125 L 153.683594 115.917969 L 156.730469 112.242188 L 174.460938 155.8125 L 177.390625 155.8125 L 158.691406 109.871094 L 162.136719 105.710938 L 182.527344 155.8125 L 185.457031 155.8125 L 164.101562 103.339844 L 167.542969 99.179688 L 190.59375 155.8125 L 193.519531 155.8125 L 169.507812 96.8125 L 172.953125 92.652344 L 198.660156 155.8125 L 201.585938 155.8125 L 174.914062 90.28125 L 222.992188 32.144531 L 209.90625 0 Z M 142.84375 0 "/>
</g>
<path fill-rule="nonzero" fill="rgb(31.001282%, 76.733398%, 72.724915%)" fill-opacity="1" d="M 76.128906 0 L 92.386719 39.941406 L 122.847656 39.917969 L 106.601562 0 Z M 76.128906 0 "/>
<path fill-rule="nonzero" fill="rgb(100%, 100%, 100%)" fill-opacity="1" d="M 17.898438 87.941406 L 18.617188 87.941406 L 18.617188 83.902344 C 18.617188 83.664062 18.601562 83.335938 18.570312 83.054688 C 18.683594 83.335938 18.832031 83.652344 18.960938 83.871094 L 20.367188 86.308594 L 20.859375 86.308594 L 22.273438 83.871094 C 22.394531 83.652344 22.535156 83.335938 22.640625 83.054688 C 22.609375 83.335938 22.601562 83.664062 22.601562 83.902344 L 22.601562 87.941406 L 23.320312 87.941406 L 23.320312 82.152344 L 22.496094 82.152344 L 20.90625 84.933594 C 20.785156 85.132812 20.683594 85.347656 20.609375 85.589844 C 20.527344 85.347656 20.433594 85.132812 20.320312 84.933594 L 18.730469 82.152344 L 17.898438 82.152344 Z M 26.574219 88.035156 C 27.910156 88.035156 28.460938 87.09375 28.460938 85.894531 C 28.460938 84.6875 27.964844 83.742188 26.574219 83.742188 C 25.246094 83.742188 24.6875 84.6875 24.6875 85.894531 C 24.6875 87.09375 25.191406 88.035156 26.574219 88.035156 M 26.574219 87.445312 C 25.71875 87.445312 25.414062 86.804688 25.414062 85.894531 C 25.414062 84.972656 25.71875 84.316406 26.574219 84.316406 C 27.4375 84.316406 27.734375 84.972656 27.734375 85.894531 C 27.734375 86.804688 27.4375 87.445312 26.574219 87.445312 M 31.601562 88.035156 C 32.667969 88.035156 33.378906 87.285156 33.378906 85.835938 C 33.378906 84.421875 32.777344 83.742188 31.714844 83.742188 C 31.203125 83.742188 30.792969 83.917969 30.46875 84.183594 L 30.46875 81.878906 L 29.765625 81.878906 L 29.765625 87.941406 L 30.386719 87.941406 L 30.425781 87.683594 C 30.730469 87.914062 31.105469 88.035156 31.601562 88.035156 M 31.523438 87.445312 C 31.113281 87.445312 30.785156 87.371094 30.46875 87.171875 L 30.46875 84.675781 C 30.792969 84.445312 31.128906 84.34375 31.554688 84.34375 C 32.300781 84.34375 32.652344 84.886719 32.652344 85.894531 C 32.652344 86.894531 32.265625 87.445312 31.523438 87.445312 M 34.707031 87.941406 L 35.40625 87.941406 L 35.40625 83.839844 L 34.707031 83.839844 Z M 34.707031 82.984375 L 35.40625 82.984375 L 35.40625 82.152344 L 34.707031 82.152344 Z M 37.910156 87.988281 C 38.175781 87.988281 38.40625 87.949219 38.582031 87.890625 L 38.582031 87.324219 C 38.421875 87.355469 38.246094 87.371094 38.085938 87.371094 C 37.804688 87.371094 37.71875 87.238281 37.71875 86.964844 L 37.71875 81.878906 L 37.015625 81.878906 L 37.015625 87.046875 C 37.015625 87.722656 37.359375 87.988281 37.910156 87.988281 M 43.523438 88.035156 C 45.136719 88.035156 45.601562 86.765625 45.601562 85.039062 C 45.601562 83.320312 45.144531 82.054688 43.539062 82.054688 C 41.949219 82.054688 41.484375 83.328125 41.484375 85.054688 C 41.484375 86.773438 41.925781 88.035156 43.523438 88.035156 M 43.539062 87.414062 C 42.546875 87.414062 42.242188 86.421875 42.242188 85.046875 C 42.242188 83.671875 42.546875 82.679688 43.539062 82.679688 C 44.53125 82.679688 44.84375 83.671875 44.84375 85.046875 C 44.84375 86.421875 44.53125 87.414062 43.539062 87.414062 M 47.242188 87.941406 L 50.429688 87.941406 L 50.429688 87.332031 L 49.199219 87.332031 L 49.199219 82.152344 L 48.75 82.152344 L 47.242188 82.488281 L 47.242188 83.09375 L 48.464844 82.847656 L 48.464844 87.332031 L 47.242188 87.332031 Z M 52.46875 87.941406 L 53.269531 87.941406 L 55.8125 82.773438 L 55.8125 82.152344 L 52.007812 82.152344 L 52.007812 82.773438 L 55.019531 82.773438 Z M 57.617188 87.941406 L 60.808594 87.941406 L 60.808594 87.332031 L 59.578125 87.332031 L 59.578125 82.152344 L 59.128906 82.152344 L 57.617188 82.488281 L 57.617188 83.09375 L 58.84375 82.847656 L 58.84375 87.332031 L 57.617188 87.332031 Z M 61.945312 87.941406 L 62.632812 87.941406 L 65.230469 81.878906 L 64.550781 81.878906 Z M 68.203125 88.035156 C 69.554688 88.035156 70.171875 87.140625 70.171875 86.15625 C 70.171875 85.078125 69.515625 84.269531 68.246094 84.269531 C 67.691406 84.269531 67.226562 84.46875 66.875 84.789062 C 66.980469 83.398438 67.53125 82.6875 68.691406 82.6875 C 69.1875 82.6875 69.53125 82.773438 69.867188 82.886719 L 69.867188 82.25 C 69.570312 82.136719 69.21875 82.054688 68.667969 82.054688 C 66.933594 82.054688 66.101562 83.207031 66.101562 85.308594 C 66.101562 87.078125 66.867188 88.035156 68.203125 88.035156 M 68.179688 84.886719 C 69.019531 84.886719 69.417969 85.398438 69.417969 86.15625 C 69.417969 86.902344 69.011719 87.429688 68.203125 87.429688 C 67.402344 87.429688 66.851562 86.84375 66.84375 85.351562 C 67.242188 85.039062 67.699219 84.886719 68.179688 84.886719 M 71.777344 87.941406 L 74.96875 87.941406 L 74.96875 87.332031 L 73.734375 87.332031 L 73.734375 82.152344 L 73.289062 82.152344 L 71.777344 82.488281 L 71.777344 83.09375 L 73 82.847656 L 73 87.332031 L 71.777344 87.332031 Z M 78.238281 88.035156 C 79.675781 88.035156 80.269531 87.261719 80.269531 86.246094 C 80.269531 84.726562 78.667969 84.460938 77.597656 84.40625 L 77.65625 82.773438 L 80.050781 82.773438 L 80.050781 82.152344 L 76.957031 82.152344 L 76.863281 85.039062 C 77.664062 85.054688 79.507812 85.070312 79.507812 86.253906 C 79.507812 86.925781 79.132812 87.40625 78.214844 87.40625 C 77.605469 87.40625 77.015625 87.253906 76.640625 87.085938 L 76.640625 87.71875 C 77 87.921875 77.550781 88.035156 78.238281 88.035156 M 85.425781 88.035156 C 86.808594 88.035156 87.449219 87.324219 87.449219 86.367188 C 87.449219 85.699219 87.128906 85.148438 86.433594 84.886719 C 86.960938 84.613281 87.238281 84.136719 87.238281 83.566406 C 87.238281 82.566406 86.609375 82.054688 85.410156 82.054688 C 84.835938 82.054688 84.28125 82.199219 83.980469 82.375 L 83.980469 83.023438 C 84.28125 82.855469 84.800781 82.695312 85.378906 82.695312 C 86.050781 82.695312 86.480469 83.007812 86.480469 83.597656 C 86.480469 84.269531 86.066406 84.628906 85.273438 84.628906 L 84.753906 84.628906 L 84.753906 85.246094 L 85.273438 85.246094 C 86.226562 85.246094 86.6875 85.691406 86.6875 86.367188 C 86.6875 86.972656 86.265625 87.40625 85.402344 87.40625 C 84.785156 87.40625 84.203125 87.253906 83.820312 87.085938 L 83.820312 87.71875 C 84.1875 87.921875 84.730469 88.035156 85.425781 88.035156 M 90.71875 88.035156 C 92.15625 88.035156 92.75 87.261719 92.75 86.246094 C 92.75 84.726562 91.148438 84.460938 90.078125 84.40625 L 90.136719 82.773438 L 92.53125 82.773438 L 92.53125 82.152344 L 89.4375 82.152344 L 89.34375 85.039062 C 90.144531 85.054688 91.988281 85.070312 91.988281 86.253906 C 91.988281 86.925781 91.613281 87.40625 90.695312 87.40625 C 90.085938 87.40625 89.496094 87.253906 89.121094 87.085938 L 89.121094 87.71875 C 89.480469 87.921875 90.03125 88.035156 90.71875 88.035156 M 97.625 88.035156 C 99.359375 88.035156 100.191406 86.886719 100.191406 84.78125 C 100.191406 83.015625 99.425781 82.054688 98.089844 82.054688 C 96.738281 82.054688 96.121094 82.910156 96.121094 83.878906 C 96.121094 84.941406 96.777344 85.710938 98.050781 85.710938 C 98.601562 85.710938 99.074219 85.511719 99.425781 85.191406 C 99.335938 86.660156 98.785156 87.40625 97.601562 87.40625 C 97.105469 87.40625 96.761719 87.316406 96.425781 87.207031 L 96.425781 87.84375 C 96.722656 87.957031 97.074219 88.035156 97.625 88.035156 M 98.113281 85.09375 C 97.273438 85.09375 96.871094 84.605469 96.871094 83.878906 C 96.871094 83.167969 97.28125 82.664062 98.089844 82.664062 C 98.863281 82.664062 99.410156 83.214844 99.449219 84.628906 C 99.046875 84.941406 98.59375 85.09375 98.113281 85.09375 M 101.925781 87.941406 L 105.117188 87.941406 L 105.117188 87.332031 L 103.882812 87.332031 L 103.882812 82.152344 L 103.4375 82.152344 L 101.925781 82.488281 L 101.925781 83.09375 L 103.148438 82.847656 L 103.148438 87.332031 L 101.925781 87.332031 Z M 101.925781 87.941406 "/>
<path fill-rule="nonzero" fill="rgb(100%, 100%, 100%)" fill-opacity="1" d="M 31.03125 68.726562 L 31.839844 68.726562 L 31.839844 73.132812 C 31.839844 74.085938 31.460938 74.445312 30.839844 74.445312 C 30.734375 74.445312 30.648438 74.4375 30.558594 74.421875 L 30.558594 75.042969 C 30.648438 75.066406 30.765625 75.082031 30.886719 75.082031 C 31.863281 75.082031 32.574219 74.523438 32.574219 73.214844 L 32.574219 68.160156 L 31.03125 68.160156 Z M 36.554688 73.949219 L 37.195312 73.949219 L 37.195312 71.191406 C 37.195312 70.117188 36.554688 69.75 35.613281 69.75 C 35.058594 69.75 34.5625 69.910156 34.230469 70.09375 L 34.230469 70.660156 C 34.515625 70.527344 34.988281 70.359375 35.53125 70.359375 C 36.210938 70.359375 36.492188 70.628906 36.492188 71.300781 L 36.492188 71.582031 L 36.085938 71.582031 C 34.699219 71.582031 33.941406 71.996094 33.941406 72.882812 C 33.941406 73.597656 34.46875 74.042969 35.265625 74.042969 C 35.773438 74.042969 36.179688 73.875 36.507812 73.621094 Z M 35.417969 73.460938 C 34.914062 73.460938 34.660156 73.253906 34.660156 72.871094 C 34.660156 72.359375 35.101562 72.101562 36.1875 72.101562 L 36.492188 72.101562 L 36.492188 73.132812 C 36.164062 73.359375 35.828125 73.460938 35.417969 73.460938 M 38.730469 73.949219 L 39.433594 73.949219 L 39.433594 70.734375 C 39.785156 70.46875 40.136719 70.351562 40.578125 70.351562 C 41.128906 70.351562 41.433594 70.589844 41.433594 71.191406 L 41.433594 73.949219 L 42.136719 73.949219 L 42.136719 71.078125 C 42.136719 70.207031 41.648438 69.75 40.714844 69.75 C 40.175781 69.75 39.753906 69.933594 39.417969 70.222656 L 39.367188 69.847656 L 38.730469 69.847656 Z M 45.972656 73.949219 L 46.613281 73.949219 L 46.613281 71.191406 C 46.613281 70.117188 45.972656 69.75 45.03125 69.75 C 44.476562 69.75 43.980469 69.910156 43.648438 70.09375 L 43.648438 70.660156 C 43.933594 70.527344 44.40625 70.359375 44.949219 70.359375 C 45.628906 70.359375 45.910156 70.628906 45.910156 71.300781 L 45.910156 71.582031 L 45.503906 71.582031 C 44.117188 71.582031 43.359375 71.996094 43.359375 72.882812 C 43.359375 73.597656 43.886719 74.042969 44.6875 74.042969 C 45.191406 74.042969 45.597656 73.875 45.925781 73.621094 Z M 44.835938 73.460938 C 44.335938 73.460938 44.078125 73.253906 44.078125 72.871094 C 44.078125 72.359375 44.519531 72.101562 45.605469 72.101562 L 45.910156 72.101562 L 45.910156 73.132812 C 45.582031 73.359375 45.246094 73.460938 44.835938 73.460938 M 49.804688 73.949219 L 53.976562 73.949219 L 53.976562 73.339844 L 50.683594 73.339844 L 53.855469 68.785156 L 53.855469 68.160156 L 49.898438 68.160156 L 49.898438 68.765625 L 52.976562 68.765625 L 49.804688 73.324219 Z M 58.300781 73.949219 L 59.003906 73.949219 L 60.371094 69.847656 L 59.636719 69.847656 L 58.789062 72.703125 C 58.742188 72.863281 58.683594 73.0625 58.644531 73.269531 C 58.605469 73.0625 58.550781 72.863281 58.507812 72.703125 L 57.695312 69.847656 L 57.054688 69.847656 L 56.238281 72.703125 C 56.191406 72.863281 56.136719 73.0625 56.09375 73.269531 C 56.054688 73.0625 56.007812 72.863281 55.960938 72.703125 L 55.113281 69.847656 L 54.378906 69.847656 L 55.742188 73.949219 L 56.445312 73.949219 L 57.238281 71.320312 C 57.277344 71.191406 57.328125 70.996094 57.375 70.796875 C 57.414062 70.996094 57.46875 71.191406 57.511719 71.316406 Z M 61.355469 73.949219 L 62.058594 73.949219 L 62.058594 69.847656 L 61.355469 69.847656 Z M 61.355469 68.992188 L 62.058594 68.992188 L 62.058594 68.160156 L 61.355469 68.160156 Z M 63.667969 73.949219 L 64.371094 73.949219 L 64.371094 70.734375 C 64.722656 70.46875 65.074219 70.351562 65.511719 70.351562 C 66.066406 70.351562 66.371094 70.589844 66.371094 71.191406 L 66.371094 73.949219 L 67.074219 73.949219 L 67.074219 71.078125 C 67.074219 70.207031 66.585938 69.75 65.648438 69.75 C 65.113281 69.75 64.691406 69.933594 64.355469 70.222656 L 64.304688 69.847656 L 63.667969 69.847656 Z M 68.265625 73.949219 L 71.453125 73.949219 L 71.453125 73.367188 L 69.09375 73.367188 L 71.367188 70.34375 L 71.367188 69.847656 L 68.328125 69.847656 L 68.328125 70.429688 L 70.519531 70.429688 L 68.265625 73.453125 Z M 73.667969 74.042969 C 74.789062 74.042969 75.371094 73.535156 75.371094 72.8125 C 75.371094 72.078125 74.890625 71.765625 74.027344 71.574219 C 73.453125 71.445312 73.140625 71.332031 73.140625 70.917969 C 73.140625 70.535156 73.40625 70.34375 73.980469 70.34375 C 74.4375 70.34375 74.867188 70.46875 75.15625 70.621094 L 75.15625 70.039062 C 74.890625 69.871094 74.46875 69.75 73.980469 69.75 C 72.867188 69.75 72.4375 70.230469 72.4375 70.949219 C 72.4375 71.683594 72.910156 71.949219 73.765625 72.148438 C 74.339844 72.285156 74.675781 72.429688 74.675781 72.847656 C 74.675781 73.230469 74.316406 73.445312 73.652344 73.445312 C 73.210938 73.445312 72.667969 73.308594 72.398438 73.179688 L 72.398438 73.773438 C 72.660156 73.917969 73.164062 74.042969 73.667969 74.042969 M 78.128906 74.042969 C 78.617188 74.042969 79.070312 73.90625 79.320312 73.757812 L 79.320312 73.171875 C 79.046875 73.292969 78.726562 73.421875 78.167969 73.421875 C 77.480469 73.421875 77.082031 72.925781 77.082031 71.851562 C 77.082031 70.925781 77.433594 70.367188 78.183594 70.367188 C 78.609375 70.367188 79.007812 70.46875 79.257812 70.589844 L 79.257812 69.984375 C 79.015625 69.839844 78.609375 69.75 78.175781 69.75 C 76.960938 69.75 76.355469 70.613281 76.355469 71.851562 C 76.355469 73.285156 76.988281 74.042969 78.128906 74.042969 M 80.542969 73.949219 L 81.246094 73.949219 L 81.246094 70.726562 C 81.601562 70.46875 81.953125 70.351562 82.390625 70.351562 C 82.941406 70.351562 83.246094 70.589844 83.246094 71.191406 L 83.246094 73.949219 L 83.949219 73.949219 L 83.949219 71.078125 C 83.949219 70.207031 83.460938 69.75 82.527344 69.75 C 82 69.75 81.574219 69.933594 81.246094 70.214844 L 81.246094 67.890625 L 80.542969 67.890625 Z M 87.042969 74.042969 C 87.675781 74.042969 88.132812 73.917969 88.453125 73.75 L 88.453125 73.164062 C 88.148438 73.285156 87.730469 73.421875 87.125 73.421875 C 86.316406 73.421875 85.949219 72.925781 85.917969 72.015625 L 88.640625 72.015625 C 88.648438 71.957031 88.660156 71.828125 88.660156 71.726562 C 88.660156 70.613281 88.089844 69.75 86.933594 69.75 C 85.757812 69.75 85.207031 70.652344 85.207031 71.871094 C 85.207031 73.238281 85.820312 74.042969 87.042969 74.042969 M 86.933594 70.316406 C 87.546875 70.316406 87.90625 70.773438 87.941406 71.46875 L 85.917969 71.46875 C 85.957031 70.773438 86.316406 70.316406 86.933594 70.316406 M 89.96875 73.949219 L 90.671875 73.949219 L 90.671875 71.207031 C 90.800781 70.796875 91.160156 70.421875 91.671875 70.421875 C 91.894531 70.421875 92.128906 70.460938 92.273438 70.511719 L 92.273438 69.839844 C 92.160156 69.792969 91.992188 69.75 91.792969 69.75 C 91.25 69.75 90.882812 70.0625 90.65625 70.453125 L 90.609375 69.847656 L 89.96875 69.847656 Z M 89.96875 73.949219 "/>
<g fill="rgb(100%, 100%, 100%)" fill-opacity="1">
<use xlink:href="#glyph-0-0" x="110.207989" y="126.619058"/>
<use xlink:href="#glyph-0-1" x="115.969566" y="119.93243"/>
<use xlink:href="#glyph-0-2" x="121.186441" y="113.877961"/>
<use xlink:href="#glyph-0-3" x="125.076081" y="109.36382"/>
<use xlink:href="#glyph-0-2" x="131.5358" y="101.866962"/>
</g>
<g fill="rgb(100%, 100%, 100%)" fill-opacity="1">
<use xlink:href="#glyph-0-4" x="135.279674" y="97.521989"/>
<use xlink:href="#glyph-0-5" x="141.355799" y="90.470313"/>
<use xlink:href="#glyph-0-3" x="147.401236" y="83.454251"/>
<use xlink:href="#glyph-0-4" x="153.860954" y="75.957393"/>
<use xlink:href="#glyph-0-6" x="159.937079" y="68.905717"/>
</g>
<g fill="rgb(100%, 100%, 100%)" fill-opacity="1">
<use xlink:href="#glyph-0-6" x="165.061124" y="62.958981"/>
<use xlink:href="#glyph-0-1" x="170.262655" y="56.922319"/>
<use xlink:href="#glyph-0-0" x="175.479529" y="50.867849"/>
</g>
<g fill="rgb(100%, 100%, 100%)" fill-opacity="1">
<use xlink:href="#glyph-0-7" x="181.064654" y="44.386005"/>
<use xlink:href="#glyph-0-2" x="186.772528" y="37.761703"/>
</g>
<g fill="rgb(100%, 100%, 100%)" fill-opacity="1">
<use xlink:href="#glyph-0-8" x="190.516403" y="33.416731"/>
<use xlink:href="#glyph-0-1" x="195.871371" y="27.201996"/>
</g>
<g fill="rgb(100%, 100%, 100%)" fill-opacity="1">
<use xlink:href="#glyph-1-0" x="122.543451" y="137.247949"/>
</g>
<g fill="rgb(100%, 100%, 100%)" fill-opacity="1">
<use xlink:href="#glyph-1-1" x="129.744566" y="128.890714"/>
<use xlink:href="#glyph-1-2" x="136.113079" y="121.499752"/>
<use xlink:href="#glyph-1-3" x="141.834998" y="114.859194"/>
<use xlink:href="#glyph-1-4" x="148.991826" y="106.553356"/>
<use xlink:href="#glyph-1-5" x="154.545453" y="100.108108"/>
<use xlink:href="#glyph-1-6" x="160.896251" y="92.737705"/>
<use xlink:href="#glyph-1-7" x="167.574776" y="84.98696"/>
<use xlink:href="#glyph-1-8" x="175.945075" y="75.272831"/>
<use xlink:href="#glyph-1-2" x="181.799856" y="68.47808"/>
<use xlink:href="#glyph-1-9" x="187.521775" y="61.837521"/>
</g>
<g fill="rgb(100%, 100%, 100%)" fill-opacity="1">
<use xlink:href="#glyph-1-10" x="192.632529" y="55.906248"/>
<use xlink:href="#glyph-1-3" x="199.311054" y="48.155504"/>
<use xlink:href="#glyph-1-11" x="206.467881" y="39.849666"/>
</g>
<path fill-rule="nonzero" fill="rgb(59.901428%, 86.355591%, 82.202148%)" fill-opacity="1" d="M 225.105469 50.136719 L 225.0625 50.144531 L 225.046875 50.195312 L 224.992188 50.28125 L 224.921875 50.429688 L 224.851562 50.574219 C 224.851562 50.621094 224.917969 50.710938 225.050781 50.847656 C 225.183594 50.980469 225.351562 51.132812 225.5625 51.308594 C 225.773438 51.484375 226.003906 51.671875 226.257812 51.863281 C 226.511719 52.058594 226.761719 52.25 227 52.429688 C 227.238281 52.613281 227.460938 52.773438 227.660156 52.910156 C 227.773438 52.988281 227.871094 53.054688 227.949219 53.109375 L 227.65625 53.003906 C 227.550781 53.226562 227.472656 53.433594 227.421875 53.625 C 227.375 53.820312 227.328125 54.007812 227.285156 54.191406 C 227.242188 54.371094 227.191406 54.558594 227.128906 54.746094 C 227.070312 54.933594 226.984375 55.132812 226.867188 55.335938 C 226.804688 55.269531 226.671875 55.152344 226.476562 54.992188 C 226.285156 54.828125 226.078125 54.644531 225.859375 54.445312 C 225.644531 54.242188 225.4375 54.03125 225.242188 53.808594 C 225.046875 53.585938 224.914062 53.386719 224.839844 53.207031 C 224.839844 53.097656 224.902344 53.03125 225.027344 53 C 225.117188 52.976562 225.21875 52.964844 225.335938 52.964844 C 225.375 52.964844 225.417969 52.964844 225.460938 52.96875 C 225.625 52.980469 225.796875 53.003906 225.976562 53.046875 C 226.152344 53.085938 226.296875 53.121094 226.40625 53.144531 C 226.433594 53.050781 226.371094 52.933594 226.214844 52.785156 C 226.058594 52.632812 225.859375 52.507812 225.613281 52.40625 C 225.371094 52.300781 225.101562 52.246094 224.816406 52.238281 C 224.804688 52.238281 224.792969 52.238281 224.78125 52.238281 C 224.507812 52.238281 224.253906 52.324219 224.023438 52.503906 C 223.898438 52.648438 223.851562 52.808594 223.886719 52.976562 C 223.917969 53.148438 223.988281 53.3125 224.097656 53.46875 C 224.203125 53.625 224.328125 53.773438 224.464844 53.910156 C 224.601562 54.046875 224.714844 54.160156 224.796875 54.242188 C 224.859375 54.304688 224.96875 54.40625 225.132812 54.550781 C 225.296875 54.699219 225.472656 54.851562 225.660156 55.015625 C 225.851562 55.179688 226.03125 55.332031 226.203125 55.472656 C 226.375 55.617188 226.492188 55.710938 226.5625 55.761719 C 226.542969 55.941406 226.492188 56.101562 226.40625 56.242188 C 226.320312 56.382812 226.246094 56.523438 226.1875 56.65625 C 226.128906 56.792969 226.109375 56.929688 226.125 57.066406 C 226.144531 57.207031 226.25 57.359375 226.4375 57.523438 L 226.574219 57.578125 L 226.699219 57.539062 L 226.804688 57.453125 L 226.878906 57.371094 L 227.003906 57.164062 L 227.175781 56.710938 L 227.300781 56.503906 L 227.363281 56.511719 C 227.398438 56.523438 227.515625 56.582031 227.707031 56.6875 C 227.898438 56.796875 228.195312 56.964844 228.605469 57.199219 C 229.011719 57.433594 229.585938 57.769531 230.328125 58.210938 L 230.496094 58.09375 L 230.570312 57.914062 L 230.582031 57.734375 L 230.574219 57.621094 L 230.539062 57.589844 L 230.523438 57.566406 L 230.511719 57.550781 C 230.28125 57.371094 230.035156 57.222656 229.769531 57.101562 C 229.503906 56.980469 229.238281 56.859375 228.972656 56.746094 C 228.707031 56.628906 228.453125 56.503906 228.214844 56.371094 C 227.972656 56.234375 227.765625 56.066406 227.59375 55.859375 L 228.203125 53.238281 L 228.304688 53.265625 L 228.421875 53.273438 L 228.511719 53.226562 L 228.625 53.101562 L 228.730469 52.953125 L 228.742188 52.847656 L 228.679688 52.753906 L 228.535156 52.628906 C 228.3125 52.4375 228.054688 52.234375 227.761719 52.023438 C 227.46875 51.808594 227.171875 51.597656 226.867188 51.382812 C 226.5625 51.167969 226.261719 50.957031 225.972656 50.75 C 225.683594 50.546875 225.425781 50.351562 225.210938 50.175781 L 225.105469 50.136719 M 230.699219 54.546875 C 230.597656 54.546875 230.503906 54.597656 230.414062 54.703125 C 230.285156 54.851562 230.25 54.988281 230.296875 55.117188 C 230.34375 55.246094 230.441406 55.375 230.589844 55.503906 L 230.773438 55.640625 L 230.984375 55.738281 L 231.1875 55.75 L 231.367188 55.644531 C 231.503906 55.484375 231.535156 55.328125 231.464844 55.175781 C 231.394531 55.023438 231.300781 54.894531 231.175781 54.789062 C 231.035156 54.664062 230.898438 54.589844 230.773438 54.554688 C 230.746094 54.550781 230.722656 54.546875 230.699219 54.546875 M 225.15625 56.863281 L 224.949219 56.875 L 224.785156 56.964844 C 225.246094 57.359375 225.617188 57.828125 225.890625 58.363281 C 226.167969 58.898438 226.386719 59.449219 226.550781 60.011719 L 226.53125 60.171875 L 226.457031 60.378906 L 226.335938 60.523438 L 226.152344 60.476562 C 226.082031 60.433594 225.976562 60.367188 225.835938 60.277344 C 225.695312 60.183594 225.535156 60.078125 225.359375 59.960938 C 225.183594 59.84375 224.996094 59.71875 224.800781 59.589844 C 224.609375 59.464844 224.425781 59.339844 224.25 59.21875 C 224.078125 59.097656 223.917969 58.992188 223.78125 58.902344 C 223.640625 58.8125 223.542969 58.742188 223.476562 58.699219 L 223.269531 58.519531 C 223.179688 58.433594 223.089844 58.355469 222.988281 58.285156 C 222.890625 58.214844 222.792969 58.167969 222.699219 58.140625 C 222.675781 58.132812 222.652344 58.128906 222.628906 58.128906 C 222.5625 58.128906 222.503906 58.15625 222.457031 58.214844 L 222.378906 58.386719 L 222.410156 58.546875 L 222.515625 58.683594 L 222.644531 58.804688 C 222.742188 58.878906 222.890625 58.984375 223.089844 59.121094 C 223.289062 59.257812 223.511719 59.40625 223.757812 59.566406 C 224.007812 59.726562 224.269531 59.894531 224.542969 60.070312 C 224.816406 60.25 225.082031 60.421875 225.339844 60.582031 C 225.597656 60.746094 225.828125 60.894531 226.039062 61.027344 C 226.25 61.15625 226.414062 61.257812 226.527344 61.328125 C 226.601562 61.355469 226.667969 61.367188 226.726562 61.367188 C 226.953125 61.367188 227.113281 61.199219 227.210938 60.859375 C 227.195312 60.140625 227.050781 59.441406 226.78125 58.765625 C 226.515625 58.089844 226.085938 57.496094 225.492188 56.984375 L 225.355469 56.910156 L 225.15625 56.863281 M 221.390625 59.402344 C 221.246094 59.402344 221.132812 59.445312 221.0625 59.527344 C 220.792969 59.839844 220.65625 60.199219 220.652344 60.597656 C 220.648438 60.996094 220.722656 61.398438 220.878906 61.804688 C 221.03125 62.210938 221.242188 62.597656 221.507812 62.957031 C 221.773438 63.320312 222.042969 63.617188 222.316406 63.851562 C 222.433594 63.953125 222.578125 64.066406 222.746094 64.1875 C 222.914062 64.304688 223.089844 64.402344 223.269531 64.46875 C 223.421875 64.523438 223.574219 64.550781 223.722656 64.550781 C 223.75 64.550781 223.773438 64.550781 223.800781 64.550781 C 223.972656 64.539062 224.128906 64.457031 224.265625 64.296875 C 224.378906 64.164062 224.433594 64.011719 224.429688 63.847656 C 224.425781 63.679688 224.386719 63.515625 224.324219 63.351562 C 224.257812 63.1875 224.179688 63.027344 224.085938 62.871094 C 223.992188 62.71875 223.914062 62.585938 223.855469 62.476562 C 223.820312 62.40625 223.757812 62.292969 223.65625 62.132812 C 223.5625 61.96875 223.457031 61.796875 223.34375 61.617188 C 223.230469 61.4375 223.125 61.265625 223.023438 61.109375 C 222.925781 60.949219 222.851562 60.835938 222.800781 60.773438 C 222.976562 60.820312 223.175781 60.902344 223.398438 61.023438 C 223.617188 61.144531 223.828125 61.277344 224.03125 61.417969 C 224.238281 61.558594 224.421875 61.691406 224.597656 61.820312 C 224.769531 61.949219 224.898438 62.054688 224.988281 62.132812 C 225.085938 62.171875 225.171875 62.191406 225.238281 62.191406 C 225.277344 62.191406 225.308594 62.1875 225.335938 62.175781 L 225.472656 61.996094 C 225.484375 61.914062 225.460938 61.816406 225.402344 61.710938 C 225.347656 61.601562 225.25 61.503906 225.109375 61.414062 C 224.984375 61.304688 224.8125 61.171875 224.59375 61.011719 C 224.371094 60.851562 224.125 60.679688 223.851562 60.507812 C 223.582031 60.332031 223.300781 60.164062 223.011719 60 C 222.722656 59.839844 222.449219 59.707031 222.1875 59.601562 C 221.929688 59.496094 221.699219 59.429688 221.496094 59.410156 C 221.460938 59.40625 221.425781 59.402344 221.390625 59.402344 M 223.515625 63.863281 C 223.507812 63.863281 223.496094 63.863281 223.488281 63.863281 C 223.335938 63.851562 223.066406 63.6875 222.671875 63.363281 C 222.519531 63.234375 222.339844 63.050781 222.140625 62.8125 C 221.941406 62.578125 221.769531 62.324219 221.628906 62.054688 C 221.484375 61.785156 221.398438 61.511719 221.363281 61.242188 C 221.332031 60.96875 221.40625 60.726562 221.585938 60.519531 L 221.652344 60.445312 L 221.730469 60.382812 C 221.875 60.515625 222.050781 60.726562 222.261719 61.015625 C 222.472656 61.304688 222.679688 61.609375 222.882812 61.9375 C 223.085938 62.265625 223.261719 62.582031 223.414062 62.890625 C 223.566406 63.199219 223.652344 63.4375 223.675781 63.617188 C 223.699219 63.78125 223.644531 63.863281 223.515625 63.863281 M 215.132812 66.941406 C 215.089844 66.941406 215.046875 66.941406 215.003906 66.945312 C 214.757812 66.960938 214.5625 67.054688 214.414062 67.222656 C 214.289062 67.371094 214.230469 67.558594 214.242188 67.785156 C 214.25 68.011719 214.289062 68.25 214.359375 68.488281 C 214.429688 68.730469 214.511719 68.960938 214.609375 69.179688 C 214.703125 69.398438 214.78125 69.570312 214.839844 69.6875 L 213.492188 68.527344 L 213.382812 68.683594 L 213.269531 68.867188 L 213.214844 69.058594 L 213.257812 69.25 C 213.945312 69.683594 214.609375 70.160156 215.25 70.679688 C 215.890625 71.199219 216.503906 71.734375 217.089844 72.285156 L 217.238281 72.320312 L 217.371094 72.28125 C 217.398438 72.246094 217.429688 72.175781 217.457031 72.0625 C 217.488281 71.949219 217.496094 71.875 217.480469 71.832031 C 217.433594 71.789062 217.355469 71.710938 217.246094 71.59375 C 217.136719 71.472656 217.019531 71.347656 216.894531 71.210938 C 216.769531 71.074219 216.652344 70.945312 216.542969 70.828125 C 216.433594 70.707031 216.363281 70.621094 216.324219 70.570312 C 216.292969 70.523438 216.226562 70.4375 216.128906 70.304688 C 216.027344 70.175781 215.917969 70.023438 215.792969 69.847656 C 215.671875 69.675781 215.550781 69.484375 215.433594 69.28125 C 215.316406 69.078125 215.214844 68.878906 215.132812 68.6875 C 215.050781 68.492188 215.003906 68.316406 214.984375 68.152344 C 214.964844 67.988281 215 67.859375 215.085938 67.753906 C 215.210938 67.667969 215.351562 67.625 215.503906 67.625 C 215.566406 67.625 215.632812 67.632812 215.703125 67.648438 C 215.9375 67.699219 216.191406 67.796875 216.457031 67.9375 C 216.726562 68.082031 217.007812 68.253906 217.308594 68.449219 C 217.605469 68.648438 217.914062 68.835938 218.226562 69.007812 C 218.417969 69.144531 218.554688 69.226562 218.636719 69.25 L 218.804688 69.234375 L 218.867188 69.0625 L 218.953125 68.828125 C 218.828125 68.722656 218.648438 68.582031 218.414062 68.414062 C 218.179688 68.246094 217.917969 68.074219 217.632812 67.894531 C 217.347656 67.71875 217.046875 67.550781 216.726562 67.402344 C 216.410156 67.25 216.105469 67.132812 215.8125 67.046875 C 215.570312 66.976562 215.34375 66.941406 215.132812 66.941406 M 212.132812 70.234375 C 212.027344 70.261719 211.933594 70.289062 211.851562 70.316406 L 211.636719 70.46875 C 211.558594 70.558594 211.542969 70.679688 211.585938 70.828125 C 211.632812 70.980469 211.699219 71.132812 211.792969 71.292969 C 211.882812 71.449219 211.980469 71.59375 212.085938 71.722656 C 212.191406 71.851562 212.265625 71.9375 212.308594 71.984375 C 212.335938 72.023438 212.429688 72.113281 212.578125 72.261719 C 212.726562 72.410156 212.886719 72.574219 213.050781 72.746094 C 213.21875 72.917969 213.375 73.078125 213.523438 73.230469 C 213.671875 73.382812 213.757812 73.476562 213.789062 73.511719 C 213.933594 73.703125 214.03125 73.863281 214.082031 73.992188 C 214.128906 74.117188 214.160156 74.226562 214.167969 74.320312 C 214.171875 74.414062 214.179688 74.5 214.183594 74.578125 C 214.1875 74.617188 214.195312 74.652344 214.207031 74.695312 C 213.972656 74.632812 213.746094 74.542969 213.535156 74.425781 C 213.28125 74.285156 213.035156 74.132812 212.800781 73.96875 C 212.566406 73.804688 212.34375 73.640625 212.132812 73.480469 C 211.921875 73.316406 211.714844 73.183594 211.511719 73.078125 C 211.308594 72.972656 211.109375 72.902344 210.910156 72.875 C 210.863281 72.867188 210.816406 72.863281 210.769531 72.863281 C 210.613281 72.863281 210.460938 72.902344 210.308594 72.980469 C 210.113281 73.203125 210.019531 73.4375 210.023438 73.683594 C 210.03125 73.929688 210.074219 74.175781 210.152344 74.433594 C 210.230469 74.6875 210.316406 74.945312 210.410156 75.207031 C 210.507812 75.46875 210.546875 75.726562 210.535156 75.980469 C 210.355469 75.855469 210.160156 75.710938 209.953125 75.550781 C 209.746094 75.394531 209.539062 75.253906 209.332031 75.132812 C 209.125 75.015625 208.929688 74.9375 208.738281 74.902344 C 208.703125 74.898438 208.664062 74.894531 208.628906 74.894531 C 208.484375 74.894531 208.351562 74.945312 208.226562 75.050781 C 208.125 75.167969 208.089844 75.328125 208.113281 75.53125 C 208.140625 75.734375 208.191406 75.941406 208.273438 76.148438 C 208.351562 76.351562 208.441406 76.546875 208.542969 76.722656 C 208.640625 76.902344 208.707031 77.023438 208.742188 77.09375 C 208.667969 77.128906 208.597656 77.144531 208.519531 77.144531 C 208.445312 77.144531 208.367188 77.128906 208.285156 77.089844 C 208.128906 77.019531 207.964844 76.929688 207.800781 76.820312 C 207.636719 76.710938 207.46875 76.613281 207.296875 76.523438 C 207.1875 76.46875 207.070312 76.4375 206.953125 76.4375 C 206.890625 76.4375 206.828125 76.445312 206.765625 76.460938 L 206.742188 76.566406 L 206.757812 76.742188 L 206.789062 76.917969 L 206.828125 77.03125 C 206.921875 77.152344 207.132812 77.300781 207.453125 77.484375 C 207.777344 77.664062 208.140625 77.867188 208.539062 78.089844 C 208.941406 78.3125 209.339844 78.550781 209.742188 78.800781 C 210.144531 79.054688 210.464844 79.308594 210.707031 79.566406 L 211.238281 78.949219 C 211.015625 78.730469 210.785156 78.503906 210.554688 78.273438 C 210.320312 78.042969 210.097656 77.800781 209.890625 77.554688 C 209.679688 77.304688 209.492188 77.046875 209.320312 76.769531 C 209.148438 76.496094 209.015625 76.210938 208.921875 75.914062 L 208.96875 75.804688 L 209.144531 75.753906 L 209.367188 75.835938 L 209.566406 75.953125 L 209.664062 76.023438 C 209.742188 76.074219 209.882812 76.167969 210.082031 76.308594 C 210.277344 76.449219 210.488281 76.601562 210.707031 76.757812 C 210.925781 76.917969 211.132812 77.070312 211.328125 77.214844 C 211.523438 77.359375 211.65625 77.460938 211.726562 77.523438 L 211.945312 77.546875 L 212.09375 77.453125 C 212.132812 77.410156 212.125 77.3125 212.070312 77.15625 C 212.019531 77.003906 211.9375 76.820312 211.828125 76.605469 C 211.722656 76.386719 211.601562 76.152344 211.472656 75.894531 C 211.34375 75.636719 211.222656 75.378906 211.109375 75.125 C 210.996094 74.871094 210.902344 74.625 210.832031 74.386719 C 210.765625 74.152344 210.738281 73.949219 210.757812 73.78125 C 210.800781 73.691406 210.871094 73.648438 210.976562 73.648438 C 210.996094 73.648438 211.015625 73.652344 211.039062 73.652344 C 211.175781 73.675781 211.335938 73.738281 211.519531 73.839844 C 211.703125 73.945312 211.898438 74.078125 212.105469 74.238281 C 212.316406 74.394531 212.515625 74.554688 212.714844 74.714844 C 212.910156 74.875 213.097656 75.027344 213.273438 75.167969 C 213.449219 75.3125 213.589844 75.417969 213.695312 75.488281 C 213.761719 75.523438 213.835938 75.539062 213.917969 75.539062 C 213.941406 75.539062 213.96875 75.535156 213.996094 75.535156 C 214.109375 75.519531 214.21875 75.492188 214.324219 75.449219 C 214.425781 75.40625 214.519531 75.351562 214.59375 75.285156 L 214.746094 75.085938 L 214.695312 74.886719 C 214.683594 74.875 214.675781 74.867188 214.664062 74.859375 L 214.722656 74.816406 L 214.757812 74.648438 L 214.753906 74.519531 L 214.726562 74.351562 C 214.71875 74.285156 214.714844 74.1875 214.710938 74.058594 C 214.875 74.121094 215.015625 74.152344 215.136719 74.152344 C 215.144531 74.152344 215.148438 74.152344 215.15625 74.152344 C 215.269531 74.152344 215.371094 74.132812 215.460938 74.09375 C 215.554688 74.050781 215.636719 73.992188 215.710938 73.917969 C 215.785156 73.847656 215.863281 73.761719 215.945312 73.664062 C 216.03125 73.566406 216.117188 73.433594 216.207031 73.273438 C 216.292969 73.113281 216.359375 72.945312 216.40625 72.761719 C 216.453125 72.582031 216.464844 72.410156 216.445312 72.242188 C 216.425781 72.070312 216.351562 71.933594 216.222656 71.820312 L 216.085938 71.734375 L 215.945312 71.65625 C 215.921875 71.96875 215.882812 72.257812 215.824219 72.527344 C 215.761719 72.792969 215.640625 73.035156 215.449219 73.253906 C 215.34375 73.375 215.238281 73.4375 215.132812 73.4375 C 215.097656 73.4375 215.058594 73.429688 215.023438 73.417969 C 214.878906 73.359375 214.722656 73.261719 214.550781 73.113281 C 214.351562 72.890625 214.175781 72.636719 214.023438 72.355469 C 213.867188 72.070312 213.707031 71.792969 213.535156 71.519531 C 213.367188 71.242188 213.171875 70.992188 212.953125 70.757812 C 212.738281 70.527344 212.460938 70.351562 212.132812 70.234375 M 213.027344 71.796875 L 212.933594 71.785156 L 212.800781 71.644531 L 212.695312 71.472656 L 212.691406 71.363281 L 212.792969 71.382812 L 212.917969 71.511719 L 213.007812 71.671875 L 213.027344 71.796875 M 206.949219 77.996094 L 206.738281 78.007812 L 206.578125 78.09375 C 207.039062 78.492188 207.410156 78.957031 207.683594 79.496094 C 207.960938 80.03125 208.179688 80.578125 208.34375 81.140625 L 208.324219 81.300781 L 208.25 81.511719 L 208.128906 81.652344 L 207.945312 81.605469 C 207.875 81.566406 207.769531 81.5 207.628906 81.40625 C 207.488281 81.3125 207.328125 81.210938 207.152344 81.089844 C 206.972656 80.972656 206.789062 80.851562 206.59375 80.722656 C 206.402344 80.59375 206.21875 80.46875 206.042969 80.351562 C 205.867188 80.230469 205.710938 80.125 205.574219 80.03125 C 205.433594 79.941406 205.332031 79.875 205.269531 79.832031 L 205.0625 79.648438 C 204.972656 79.566406 204.882812 79.488281 204.78125 79.417969 C 204.683594 79.347656 204.585938 79.296875 204.492188 79.269531 C 204.46875 79.261719 204.445312 79.257812 204.421875 79.257812 C 204.355469 79.257812 204.296875 79.289062 204.25 79.347656 L 204.171875 79.515625 L 204.203125 79.675781 L 204.308594 79.816406 L 204.4375 79.933594 C 204.535156 80.011719 204.683594 80.117188 204.882812 80.253906 C 205.078125 80.386719 205.300781 80.535156 205.550781 80.695312 C 205.796875 80.855469 206.0625 81.027344 206.335938 81.203125 C 206.609375 81.382812 206.875 81.550781 207.132812 81.714844 C 207.390625 81.875 207.621094 82.023438 207.832031 82.15625 C 208.042969 82.289062 208.207031 82.390625 208.320312 82.460938 C 208.394531 82.484375 208.460938 82.496094 208.519531 82.496094 C 208.746094 82.496094 208.90625 82.328125 209.003906 81.988281 C 208.984375 81.269531 208.84375 80.570312 208.574219 79.894531 C 208.308594 79.21875 207.878906 78.625 207.285156 78.117188 L 207.148438 78.042969 L 206.949219 77.996094 M 202.148438 79.109375 C 202.050781 79.109375 201.960938 79.140625 201.875 79.195312 C 201.746094 79.390625 201.695312 79.554688 201.722656 79.695312 C 201.746094 79.835938 201.8125 79.960938 201.921875 80.074219 C 202.046875 80.179688 202.171875 80.253906 202.296875 80.292969 C 202.320312 80.300781 202.347656 80.304688 202.371094 80.304688 C 202.472656 80.304688 202.582031 80.238281 202.695312 80.109375 C 202.820312 79.960938 202.882812 79.828125 202.886719 79.707031 C 202.886719 79.585938 202.808594 79.457031 202.648438 79.320312 C 202.464844 79.179688 202.300781 79.109375 202.148438 79.109375 M 203.183594 80.535156 C 203.035156 80.535156 202.925781 80.574219 202.855469 80.65625 C 202.585938 80.972656 202.445312 81.328125 202.445312 81.726562 C 202.441406 82.125 202.515625 82.53125 202.671875 82.9375 C 202.824219 83.34375 203.035156 83.726562 203.300781 84.089844 C 203.566406 84.449219 203.835938 84.75 204.109375 84.980469 C 204.226562 85.085938 204.371094 85.195312 204.539062 85.316406 C 204.707031 85.4375 204.882812 85.53125 205.0625 85.597656 C 205.214844 85.65625 205.367188 85.683594 205.515625 85.683594 C 205.542969 85.683594 205.566406 85.683594 205.59375 85.683594 C 205.765625 85.667969 205.921875 85.585938 206.054688 85.429688 C 206.171875 85.292969 206.226562 85.144531 206.222656 84.976562 C 206.214844 84.808594 206.179688 84.644531 206.117188 84.480469 C 206.050781 84.316406 205.972656 84.15625 205.878906 84.003906 C 205.785156 83.851562 205.707031 83.71875 205.648438 83.605469 C 205.613281 83.539062 205.546875 83.425781 205.449219 83.261719 C 205.355469 83.097656 205.25 82.929688 205.136719 82.746094 C 205.023438 82.566406 204.917969 82.398438 204.816406 82.238281 C 204.71875 82.078125 204.644531 81.96875 204.59375 81.90625 C 204.769531 81.949219 204.96875 82.035156 205.191406 82.15625 C 205.410156 82.277344 205.621094 82.40625 205.824219 82.546875 C 206.027344 82.691406 206.214844 82.824219 206.386719 82.953125 C 206.5625 83.082031 206.691406 83.183594 206.78125 83.261719 C 206.878906 83.300781 206.964844 83.320312 207.03125 83.320312 C 207.070312 83.320312 207.101562 83.316406 207.128906 83.304688 L 207.265625 83.128906 C 207.277344 83.046875 207.253906 82.949219 207.195312 82.839844 C 207.140625 82.734375 207.042969 82.632812 206.902344 82.542969 C 206.777344 82.4375 206.605469 82.304688 206.382812 82.140625 C 206.164062 81.980469 205.917969 81.8125 205.644531 81.636719 C 205.371094 81.460938 205.09375 81.292969 204.804688 81.132812 C 204.515625 80.972656 204.242188 80.839844 203.980469 80.734375 C 203.722656 80.625 203.492188 80.5625 203.289062 80.539062 C 203.253906 80.535156 203.21875 80.535156 203.183594 80.535156 M 205.308594 84.996094 C 205.296875 84.996094 205.289062 84.996094 205.28125 84.996094 C 205.128906 84.980469 204.859375 84.816406 204.464844 84.496094 C 204.3125 84.363281 204.132812 84.179688 203.933594 83.945312 C 203.734375 83.710938 203.5625 83.457031 203.421875 83.1875 C 203.277344 82.917969 203.1875 82.644531 203.15625 82.371094 C 203.125 82.097656 203.199219 81.859375 203.375 81.648438 L 203.445312 81.578125 L 203.523438 81.511719 C 203.667969 81.648438 203.84375 81.859375 204.054688 82.144531 C 204.265625 82.433594 204.46875 82.742188 204.671875 83.070312 C 204.875 83.394531 205.054688 83.714844 205.207031 84.019531 C 205.359375 84.328125 205.445312 84.570312 205.46875 84.746094 C 205.492188 84.914062 205.4375 84.996094 205.308594 84.996094 M 200.859375 80.601562 C 200.765625 80.601562 200.671875 80.628906 200.589844 80.6875 C 200.460938 80.882812 200.410156 81.046875 200.4375 81.1875 C 200.460938 81.328125 200.527344 81.453125 200.636719 81.566406 C 200.761719 81.671875 200.882812 81.746094 201.011719 81.785156 C 201.035156 81.792969 201.0625 81.796875 201.085938 81.796875 C 201.1875 81.796875 201.296875 81.730469 201.410156 81.601562 C 201.535156 81.453125 201.597656 81.320312 201.601562 81.199219 C 201.601562 81.078125 201.523438 80.949219 201.363281 80.8125 C 201.179688 80.671875 201.011719 80.601562 200.859375 80.601562 M 201.773438 83.519531 L 201.558594 83.5625 L 201.363281 83.710938 L 201.199219 83.886719 C 201.015625 84.101562 200.917969 84.328125 200.902344 84.5625 C 200.890625 84.800781 200.910156 85.042969 200.96875 85.289062 C 201.027344 85.53125 201.089844 85.777344 201.164062 86.023438 C 201.238281 86.265625 201.269531 86.507812 201.257812 86.742188 C 201.21875 86.71875 201.148438 86.671875 201.046875 86.605469 C 200.945312 86.539062 200.835938 86.46875 200.722656 86.398438 C 200.609375 86.328125 200.496094 86.261719 200.390625 86.199219 C 200.285156 86.136719 200.210938 86.09375 200.171875 86.070312 C 200.050781 86.003906 199.949219 85.957031 199.871094 85.925781 L 199.636719 86.007812 C 199.558594 86.097656 199.539062 86.1875 199.570312 86.28125 C 199.605469 86.375 199.664062 86.457031 199.746094 86.527344 C 199.964844 86.714844 200.21875 86.90625 200.5 87.097656 C 200.785156 87.285156 201.070312 87.476562 201.359375 87.660156 C 201.648438 87.84375 201.929688 88.027344 202.203125 88.203125 C 202.480469 88.382812 202.71875 88.554688 202.925781 88.722656 C 202.972656 88.734375 203.015625 88.742188 203.058594 88.742188 C 203.152344 88.742188 203.234375 88.707031 203.296875 88.632812 C 203.355469 88.5625 203.335938 88.449219 203.234375 88.292969 C 203.136719 88.132812 203.003906 87.9375 202.835938 87.714844 C 202.671875 87.488281 202.492188 87.226562 202.304688 86.929688 C 202.113281 86.636719 201.960938 86.316406 201.84375 85.96875 C 201.722656 85.621094 201.667969 85.253906 201.667969 84.863281 C 201.667969 84.472656 201.773438 84.066406 201.988281 83.640625 L 201.773438 83.519531 M 195.425781 90.886719 L 195.210938 90.929688 L 195.015625 91.078125 L 194.851562 91.253906 C 194.667969 91.46875 194.570312 91.691406 194.554688 91.929688 C 194.542969 92.167969 194.5625 92.410156 194.621094 92.65625 C 194.675781 92.898438 194.742188 93.144531 194.816406 93.386719 C 194.886719 93.632812 194.921875 93.875 194.914062 94.109375 C 194.871094 94.085938 194.800781 94.039062 194.699219 93.972656 C 194.597656 93.902344 194.492188 93.835938 194.375 93.765625 C 194.257812 93.695312 194.148438 93.628906 194.042969 93.566406 C 193.9375 93.503906 193.863281 93.460938 193.824219 93.4375 C 193.703125 93.371094 193.601562 93.324219 193.519531 93.292969 L 193.289062 93.375 C 193.210938 93.464844 193.191406 93.554688 193.222656 93.648438 C 193.257812 93.738281 193.316406 93.820312 193.398438 93.894531 C 193.617188 94.082031 193.867188 94.273438 194.152344 94.460938 C 194.4375 94.652344 194.722656 94.839844 195.011719 95.027344 C 195.300781 95.210938 195.582031 95.394531 195.855469 95.570312 C 196.132812 95.75 196.371094 95.921875 196.578125 96.089844 C 196.625 96.101562 196.667969 96.109375 196.710938 96.109375 C 196.804688 96.109375 196.886719 96.074219 196.949219 96 C 197.007812 95.929688 196.988281 95.816406 196.886719 95.65625 C 196.789062 95.5 196.65625 95.304688 196.488281 95.078125 C 196.324219 94.855469 196.144531 94.59375 195.957031 94.296875 C 195.769531 94.003906 195.613281 93.683594 195.496094 93.335938 C 195.378906 92.988281 195.316406 92.621094 195.320312 92.230469 C 195.320312 91.839844 195.429688 91.429688 195.640625 91.007812 L 195.425781 90.886719 M 191.191406 93.011719 C 191.175781 93.011719 191.164062 93.011719 191.152344 93.011719 C 191.03125 93.027344 190.910156 93.144531 190.792969 93.367188 L 190.769531 93.515625 L 190.785156 93.703125 L 190.835938 93.890625 L 190.921875 94.023438 L 191.105469 94.113281 L 191.269531 94.085938 L 191.410156 93.984375 L 191.523438 93.863281 C 191.632812 93.734375 191.699219 93.613281 191.714844 93.507812 C 191.730469 93.398438 191.664062 93.28125 191.515625 93.152344 C 191.40625 93.058594 191.296875 93.011719 191.191406 93.011719 M 190.617188 94.339844 C 190.546875 94.339844 190.449219 94.410156 190.328125 94.550781 L 190.308594 94.699219 L 190.363281 94.847656 C 190.457031 94.992188 190.597656 95.15625 190.789062 95.332031 C 190.984375 95.507812 191.195312 95.691406 191.421875 95.882812 C 191.648438 96.074219 191.878906 96.273438 192.105469 96.480469 C 192.335938 96.6875 192.527344 96.886719 192.683594 97.082031 C 192.839844 97.277344 192.949219 97.460938 193 97.640625 C 193.054688 97.816406 193.019531 97.980469 192.898438 98.132812 C 192.753906 98.300781 192.597656 98.402344 192.421875 98.433594 C 192.347656 98.449219 192.265625 98.457031 192.1875 98.457031 C 192.09375 98.457031 191.996094 98.445312 191.898438 98.425781 C 191.722656 98.382812 191.542969 98.324219 191.363281 98.25 C 191.179688 98.171875 191.007812 98.109375 190.835938 98.058594 C 190.695312 98.019531 190.5625 98 190.433594 98 C 190.40625 98 190.378906 98 190.351562 98.003906 C 190.199219 98.011719 190.066406 98.085938 189.949219 98.21875 C 189.867188 98.324219 189.84375 98.480469 189.878906 98.6875 C 189.914062 98.894531 189.972656 99.113281 190.058594 99.339844 C 190.140625 99.570312 190.230469 99.796875 190.324219 100.019531 C 190.417969 100.242188 190.472656 100.417969 190.492188 100.550781 L 187.035156 98.367188 C 186.960938 98.347656 186.878906 98.339844 186.792969 98.339844 C 186.785156 98.339844 186.777344 98.339844 186.769531 98.339844 C 186.675781 98.339844 186.59375 98.355469 186.523438 98.390625 L 186.367188 98.554688 C 186.332031 98.632812 186.328125 98.734375 186.355469 98.855469 C 186.414062 98.894531 186.632812 99.03125 187.011719 99.257812 C 187.175781 99.359375 187.378906 99.484375 187.628906 99.636719 C 187.878906 99.789062 188.1875 99.972656 188.550781 100.1875 C 188.910156 100.398438 189.335938 100.652344 189.824219 100.949219 C 190.3125 101.242188 190.878906 101.582031 191.515625 101.964844 L 191.726562 101.988281 L 191.878906 101.882812 C 191.9375 101.8125 191.949219 101.707031 191.910156 101.5625 C 191.871094 101.414062 191.804688 101.246094 191.707031 101.050781 C 191.613281 100.855469 191.503906 100.652344 191.386719 100.4375 C 191.269531 100.222656 191.15625 100.015625 191.046875 99.828125 C 190.9375 99.636719 190.847656 99.464844 190.777344 99.316406 C 190.703125 99.164062 190.675781 99.058594 190.691406 98.992188 C 190.769531 98.902344 190.871094 98.855469 191 98.855469 C 191.003906 98.855469 191.007812 98.855469 191.011719 98.855469 C 191.136719 98.855469 191.277344 98.871094 191.429688 98.90625 C 191.582031 98.941406 191.75 98.988281 191.933594 99.039062 C 192.113281 99.09375 192.289062 99.125 192.464844 99.140625 C 192.5 99.144531 192.539062 99.144531 192.574219 99.144531 C 192.710938 99.144531 192.847656 99.125 192.984375 99.085938 C 193.152344 99.039062 193.308594 98.933594 193.449219 98.769531 C 193.667969 98.515625 193.777344 98.253906 193.785156 97.976562 C 193.789062 97.703125 193.722656 97.429688 193.589844 97.164062 C 193.453125 96.894531 193.269531 96.632812 193.03125 96.375 C 192.792969 96.117188 192.542969 95.871094 192.28125 95.640625 C 192.015625 95.40625 191.757812 95.191406 191.507812 94.996094 C 191.253906 94.796875 191.046875 94.628906 190.890625 94.492188 C 190.792969 94.410156 190.710938 94.359375 190.640625 94.34375 C 190.632812 94.339844 190.625 94.339844 190.617188 94.339844 M 192.5625 94.460938 C 192.476562 94.460938 192.40625 94.476562 192.355469 94.511719 C 192.28125 94.5625 192.25 94.636719 192.261719 94.742188 C 192.269531 94.84375 192.332031 94.953125 192.445312 95.070312 C 192.542969 95.164062 192.675781 95.28125 192.851562 95.425781 C 193.027344 95.570312 193.214844 95.726562 193.421875 95.886719 C 193.625 96.050781 193.835938 96.214844 194.054688 96.382812 C 194.269531 96.546875 194.472656 96.707031 194.660156 96.851562 C 194.847656 97 195.011719 97.125 195.152344 97.234375 C 195.292969 97.339844 195.390625 97.410156 195.441406 97.445312 L 195.886719 97.210938 C 195.894531 97.167969 195.835938 97.082031 195.710938 96.949219 C 195.589844 96.820312 195.433594 96.664062 195.242188 96.488281 C 195.054688 96.3125 194.847656 96.125 194.625 95.925781 C 194.398438 95.726562 194.1875 95.539062 193.984375 95.367188 C 193.78125 95.195312 193.605469 95.046875 193.457031 94.921875 C 193.308594 94.796875 193.21875 94.71875 193.1875 94.695312 C 192.992188 94.5625 192.820312 94.488281 192.679688 94.46875 C 192.636719 94.464844 192.597656 94.460938 192.5625 94.460938 "/>
<path fill-rule="nonzero" fill="rgb(100%, 100%, 100%)" fill-opacity="1" d="M 206.921875 132.503906 L 206.925781 132.5 C 207.066406 132.25 207.398438 132.15625 207.648438 132.292969 C 207.773438 132.363281 207.863281 132.476562 207.90625 132.617188 C 207.945312 132.75 207.925781 132.894531 207.859375 133.023438 C 207.765625 133.195312 207.585938 133.300781 207.386719 133.300781 L 207.128906 133.230469 C 206.871094 133.09375 206.773438 132.765625 206.921875 132.503906 M 206.980469 139.109375 C 206.683594 139.109375 206.445312 139.351562 206.445312 139.644531 C 206.445312 143.472656 209.566406 146.585938 213.410156 146.585938 C 213.707031 146.585938 213.945312 146.34375 213.945312 146.050781 C 213.945312 145.753906 213.707031 145.515625 213.410156 145.515625 C 210.167969 145.507812 207.519531 142.878906 207.515625 139.644531 C 207.515625 139.351562 207.273438 139.109375 206.980469 139.109375 M 224.167969 132.683594 L 223.339844 133.664062 C 223.671875 134.511719 223.859375 135.4375 223.859375 136.402344 C 223.859375 138.035156 223.335938 139.546875 222.445312 140.777344 C 221.886719 145.257812 218.046875 148.730469 213.410156 148.730469 C 208.386719 148.730469 204.300781 144.65625 204.300781 139.644531 C 204.304688 138.367188 204.820312 136.710938 205.917969 134.433594 C 206.042969 134.175781 206.375 134.0625 206.628906 134.1875 C 206.757812 134.25 206.859375 134.355469 206.902344 134.492188 C 206.953125 134.632812 206.941406 134.777344 206.882812 134.902344 C 205.902344 136.914062 205.367188 138.597656 205.371094 139.644531 C 205.378906 144.054688 208.984375 147.652344 213.410156 147.65625 C 216.902344 147.652344 219.882812 145.414062 220.988281 142.300781 C 219.710938 143.304688 218.105469 143.90625 216.359375 143.90625 C 212.222656 143.90625 208.855469 140.542969 208.855469 136.402344 C 208.855469 132.265625 212.222656 128.902344 216.359375 128.902344 L 216.476562 128.90625 C 215.222656 126.972656 214.0625 125.339844 213.410156 124.449219 C 212.457031 125.757812 210.621094 128.34375 208.925781 131.179688 C 208.773438 131.421875 208.429688 131.511719 208.183594 131.363281 C 208.066406 131.292969 207.976562 131.175781 207.945312 131.035156 C 207.90625 130.894531 207.925781 130.75 208.003906 130.628906 C 210.15625 127.039062 212.519531 123.84375 212.96875 123.238281 L 212.980469 123.222656 C 213.183594 122.953125 213.636719 122.953125 213.839844 123.222656 C 214.058594 123.511719 215.902344 125.984375 217.84375 129.050781 C 218.859375 129.253906 219.800781 129.667969 220.621094 130.238281 L 220.875 129.941406 C 221.28125 129.449219 221.882812 129.171875 222.515625 129.171875 L 222.523438 129.171875 C 223.019531 129.171875 223.5 129.347656 223.886719 129.664062 C 224.378906 130.070312 224.664062 130.675781 224.664062 131.3125 C 224.664062 131.804688 224.488281 132.292969 224.167969 132.683594 M 222.53125 134.609375 L 221.210938 136.15625 C 221.023438 136.371094 220.671875 136.402344 220.449219 136.21875 C 220.230469 136.023438 220.199219 135.6875 220.390625 135.460938 L 222.082031 133.480469 C 221.742188 132.820312 221.292969 132.226562 220.757812 131.722656 L 216.652344 136.511719 C 216.554688 136.625 216.410156 136.695312 216.265625 136.699219 L 216.246094 136.699219 C 216.101562 136.699219 215.964844 136.640625 215.863281 136.539062 L 214.433594 135.113281 C 214.03125 134.707031 213.324219 134.707031 212.917969 135.113281 C 212.71875 135.3125 212.605469 135.578125 212.605469 135.867188 C 212.605469 136.152344 212.71875 136.425781 212.921875 136.625 L 215.601562 139.304688 C 215.804688 139.511719 216.109375 139.621094 216.382812 139.621094 L 216.410156 139.621094 C 216.710938 139.605469 216.988281 139.464844 217.1875 139.222656 L 217.617188 138.722656 C 217.796875 138.511719 218.152344 138.480469 218.367188 138.664062 C 218.59375 138.859375 218.617188 139.195312 218.429688 139.421875 L 218.007812 139.914062 C 217.625 140.375 217.058594 140.660156 216.460938 140.6875 L 216.359375 140.691406 C 215.792969 140.691406 215.242188 140.460938 214.839844 140.066406 L 212.160156 137.386719 C 211.753906 136.976562 211.535156 136.441406 211.535156 135.867188 C 211.535156 135.304688 211.757812 134.753906 212.160156 134.351562 C 212.5625 133.949219 213.105469 133.726562 213.679688 133.726562 C 214.25 133.726562 214.789062 133.949219 215.195312 134.351562 L 216.210938 135.375 L 219.921875 131.054688 C 218.898438 130.371094 217.671875 129.972656 216.359375 129.972656 C 212.8125 129.972656 209.925781 132.859375 209.925781 136.402344 C 209.925781 139.949219 212.8125 142.835938 216.359375 142.835938 C 219.902344 142.835938 222.789062 139.949219 222.789062 136.402344 C 222.789062 135.78125 222.699219 135.179688 222.53125 134.609375 M 223.59375 131.3125 C 223.59375 130.992188 223.445312 130.691406 223.199219 130.488281 C 223.007812 130.328125 222.773438 130.242188 222.519531 130.242188 C 222.199219 130.242188 221.898438 130.386719 221.695312 130.632812 L 221.6875 130.636719 L 221.457031 130.910156 C 221.992188 131.402344 222.453125 131.976562 222.824219 132.605469 L 223.34375 131.996094 C 223.507812 131.800781 223.59375 131.566406 223.59375 131.3125 M 219.003906 137.09375 C 218.8125 137.320312 218.839844 137.65625 219.0625 137.851562 C 219.160156 137.933594 219.28125 137.972656 219.410156 137.972656 C 219.566406 137.972656 219.71875 137.910156 219.820312 137.785156 C 220.011719 137.5625 219.984375 137.222656 219.757812 137.03125 C 219.539062 136.847656 219.1875 136.875 219.003906 137.09375 "/>
</svg>
