<?xml version="1.0" encoding="UTF-8"?>
<svg xmlns="http://www.w3.org/2000/svg" xmlns:xlink="http://www.w3.org/1999/xlink" viewBox="74 -2 165 160" role="img" aria-label="Jana Zwinzscher — Reinigungsservice & Entrümpelung">
<defs>
<clipPath id="clip-0">
<path clip-rule="nonzero" d="M 189 115 L 237 115 L 237 155.8125 L 189 155.8125 Z M 189 115 "/>
</clipPath>
<clipPath id="clip-1">
<path clip-rule="nonzero" d="M 89 0 L 223 0 L 223 155.8125 L 89 155.8125 Z M 89 0 "/>
</clipPath>
</defs>
<g clip-path="url(#clip-0)">
<path fill-rule="nonzero" fill="rgb(31.001282%, 76.733398%, 72.724915%)" fill-opacity="1" d="M 189.917969 115.894531 L 206.164062 155.8125 L 236.640625 155.8125 L 220.382812 115.871094 Z M 189.917969 115.894531 "/>
</g>
<g clip-path="url(#clip-1)">
<path fill-rule="nonzero" fill="rgb(21.936035%, 61.11145%, 58.425903%)" fill-opacity="1" d="M 142.84375 0 L 159.082031 39.894531 L 156.039062 43.570312 L 138.304688 0 L 135.378906 0 L 154.074219 45.941406 L 150.632812 50.101562 L 130.242188 0 L 127.3125 0 L 148.667969 52.472656 L 145.222656 56.632812 L 122.175781 0 L 119.246094 0 L 143.261719 59 L 139.816406 63.160156 L 114.109375 0 L 111.183594 0 L 137.851562 65.53125 L 89.777344 123.667969 L 102.859375 155.8125 L 169.921875 155.8125 L 153.683594 115.917969 L 156.730469 112.242188 L 174.460938 155.8125 L 177.390625 155.8125 L 158.691406 109.871094 L 162.136719 105.710938 L 182.527344 155.8125 L 185.457031 155.8125 L 164.101562 103.339844 L 167.542969 99.179688 L 190.59375 155.8125 L 193.519531 155.8125 L 169.507812 96.8125 L 172.953125 92.652344 L 198.660156 155.8125 L 201.585938 155.8125 L 174.914062 90.28125 L 222.992188 32.144531 L 209.90625 0 Z M 142.84375 0 "/>
</g>
<path fill-rule="nonzero" fill="rgb(31.001282%, 76.733398%, 72.724915%)" fill-opacity="1" d="M 76.128906 0 L 92.386719 39.941406 L 122.847656 39.917969 L 106.601562 0 Z M 76.128906 0 "/>
<path fill-rule="nonzero" fill="rgb(100%, 100%, 100%)" fill-opacity="1" d="M 206.921875 132.503906 L 206.925781 132.5 C 207.066406 132.25 207.398438 132.15625 207.648438 132.292969 C 207.773438 132.363281 207.863281 132.476562 207.90625 132.617188 C 207.945312 132.75 207.925781 132.894531 207.859375 133.023438 C 207.765625 133.195312 207.585938 133.300781 207.386719 133.300781 C 207.300781 133.300781 207.210938 133.273438 207.128906 133.230469 C 206.871094 133.09375 206.773438 132.765625 206.921875 132.503906 M 206.980469 139.109375 C 206.683594 139.109375 206.445312 139.351562 206.445312 139.644531 C 206.445312 143.472656 209.566406 146.585938 213.410156 146.585938 C 213.707031 146.585938 213.945312 146.34375 213.945312 146.050781 C 213.945312 145.753906 213.707031 145.515625 213.410156 145.515625 C 210.167969 145.507812 207.519531 142.878906 207.515625 139.644531 C 207.515625 139.351562 207.273438 139.109375 206.980469 139.109375 M 224.167969 132.683594 L 223.339844 133.664062 C 223.671875 134.511719 223.859375 135.4375 223.859375 136.402344 C 223.859375 138.035156 223.335938 139.546875 222.445312 140.777344 C 221.886719 145.257812 218.046875 148.730469 213.410156 148.730469 C 208.386719 148.730469 204.300781 144.65625 204.300781 139.644531 C 204.304688 138.367188 204.820312 136.710938 205.917969 134.433594 C 206.042969 134.175781 206.375 134.0625 206.628906 134.1875 C 206.757812 134.25 206.859375 134.355469 206.902344 134.492188 C 206.953125 134.632812 206.941406 134.777344 206.882812 134.902344 C 205.902344 136.914062 205.367188 138.597656 205.371094 139.644531 C 205.378906 144.054688 208.984375 147.652344 213.410156 147.65625 C 216.902344 147.652344 219.882812 145.414062 220.988281 142.300781 C 219.710938 143.304688 218.105469 143.90625 216.359375 143.90625 C 212.222656 143.90625 208.855469 140.542969 208.855469 136.402344 C 208.855469 132.265625 212.222656 128.902344 216.359375 128.902344 C 216.398438 128.902344 216.4375 128.90625 216.476562 128.90625 C 215.222656 126.972656 214.0625 125.339844 213.410156 124.449219 C 212.457031 125.757812 210.621094 128.34375 208.925781 131.179688 C 208.773438 131.421875 208.429688 131.511719 208.183594 131.363281 C 208.066406 131.292969 207.976562 131.175781 207.945312 131.035156 C 207.90625 130.894531 207.925781 130.75 208.003906 130.628906 C 210.15625 127.039062 212.519531 123.84375 212.96875 123.238281 L 212.980469 123.222656 C 213.183594 122.953125 213.636719 122.953125 213.839844 123.222656 C 214.058594 123.511719 215.902344 125.984375 217.84375 129.050781 C 218.859375 129.253906 219.800781 129.667969 220.621094 130.238281 L 220.875 129.941406 C 221.28125 129.449219 221.882812 129.171875 222.515625 129.171875 L 222.523438 129.171875 C 223.019531 129.171875 223.5 129.347656 223.886719 129.664062 C 224.378906 130.070312 224.664062 130.675781 224.664062 131.3125 C 224.664062 131.804688 224.488281 132.292969 224.167969 132.683594 M 222.53125 134.609375 L 221.210938 136.15625 C 221.023438 136.371094 220.671875 136.402344 220.449219 136.21875 C 220.230469 136.023438 220.199219 135.6875 220.390625 135.460938 L 222.082031 133.480469 C 221.742188 132.820312 221.292969 132.226562 220.757812 131.722656 L 216.652344 136.511719 C 216.554688 136.625 216.410156 136.695312 216.265625 136.699219 L 216.246094 136.699219 C 216.101562 136.699219 215.964844 136.640625 215.863281 136.539062 L 214.433594 135.113281 C 214.03125 134.707031 213.324219 134.707031 212.917969 135.113281 C 212.71875 135.3125 212.605469 135.578125 212.605469 135.867188 C 212.605469 136.152344 212.71875 136.425781 212.921875 136.625 L 215.601562 139.304688 C 215.804688 139.511719 216.109375 139.621094 216.382812 139.621094 L 216.410156 139.621094 C 216.710938 139.605469 216.988281 139.464844 217.1875 139.222656 L 217.617188 138.722656 C 217.796875 138.511719 218.152344 138.480469 218.367188 138.664062 C 218.59375 138.859375 218.617188 139.195312 218.429688 139.421875 L 218.007812 139.914062 C 217.625 140.375 217.058594 140.660156 216.460938 140.6875 C 216.425781 140.691406 216.390625 140.691406 216.359375 140.691406 C 215.792969 140.691406 215.242188 140.460938 214.839844 140.066406 L 212.160156 137.386719 C 211.753906 136.976562 211.535156 136.441406 211.535156 135.867188 C 211.535156 135.304688 211.757812 134.753906 212.160156 134.351562 C 212.5625 133.949219 213.105469 133.726562 213.679688 133.726562 C 214.25 133.726562 214.789062 133.949219 215.195312 134.351562 L 216.210938 135.375 L 219.921875 131.054688 C 218.898438 130.371094 217.671875 129.972656 216.359375 129.972656 C 212.8125 129.972656 209.925781 132.859375 209.925781 136.402344 C 209.925781 139.949219 212.8125 142.835938 216.359375 142.835938 C 219.902344 142.835938 222.789062 139.949219 222.789062 136.402344 C 222.789062 135.78125 222.699219 135.179688 222.53125 134.609375 M 223.59375 131.3125 C 223.59375 130.992188 223.445312 130.691406 223.199219 130.488281 C 223.007812 130.328125 222.773438 130.242188 222.519531 130.242188 C 222.199219 130.242188 221.898438 130.386719 221.695312 130.632812 L 221.6875 130.636719 L 221.457031 130.910156 C 221.992188 131.402344 222.453125 131.976562 222.824219 132.605469 L 223.34375 131.996094 C 223.507812 131.800781 223.59375 131.566406 223.59375 131.3125 M 219.003906 137.09375 C 218.8125 137.320312 218.839844 137.65625 219.0625 137.851562 C 219.160156 137.933594 219.28125 137.972656 219.410156 137.972656 C 219.566406 137.972656 219.71875 137.910156 219.820312 137.785156 C 220.011719 137.5625 219.984375 137.222656 219.757812 137.03125 C 219.539062 136.847656 219.1875 136.875 219.003906 137.09375 "/>
</svg>
